<?xml version="1.0" encoding="utf-8"?>
<!-- Generator: Adobe Illustrator 23.0.6, SVG Export Plug-In . SVG Version: 6.00 Build 0)  -->
<svg version="1.1" id="Layer_1" xmlns="http://www.w3.org/2000/svg" xmlns:xlink="http://www.w3.org/1999/xlink" x="0px" y="0px"
	 viewBox="0 0 122.9 122.9" style="enable-background:new 0 0 122.9 122.9;" xml:space="preserve">
<style type="text/css">
	.st0{fill:#17FCCE;}
</style>
<g>
	<path class="st0" d="M104.5,0H18.4C8.3,0,0,8.3,0,18.4v86.1c0,10.1,8.3,18.4,18.4,18.4h86.1c10.1,0,18.4-8.3,18.4-18.4V18.4
		C122.9,8.3,114.6,0,104.5,0z M91,77.3c0,7-1.2,13.9-8.4,16.6c-18.7,6.2-20.9-16.8-7.2-19c7.2-0.8,10.8-2.4,10.8-4.8V40.8
		c-0.2-1.9-1.1-2.7-2.9-2.4l-33.1,6.7c-1.6,0.3-2.4,1.2-2.4,2.6v38.4c0,7-1.2,13.9-8.4,16.6c-18.7,6.2-20.9-16.8-7.2-19
		C39.4,83,43,81.4,43,79V30.2c0-3.8,3.1-4.3,3.1-4.3l40.8-8.4c4.1-1.2,4.1,3.6,4.1,3.6V77.3z"/>
</g>
</svg>
