<?xml version="1.0" encoding="utf-8"?>
<!-- Generator: Adobe Illustrator 23.0.6, SVG Export Plug-In . SVG Version: 6.00 Build 0)  -->
<svg version="1.1" id="Laag_1" xmlns="http://www.w3.org/2000/svg" xmlns:xlink="http://www.w3.org/1999/xlink" x="0px" y="0px"
	 viewBox="0 0 48 48" style="enable-background:new 0 0 48 48;" xml:space="preserve">
<style type="text/css">
	.st0{fill-rule:evenodd;clip-rule:evenodd;fill:#17FCCE;}
</style>
<path class="st0" d="M0,24c0,13.3,10.7,24,24,24s24-10.7,24-24S37.3,0,24,0S0,10.7,0,24z M26.1,18.8c0.9,0.9,1.8,1.8,2.7,2.7
	c0.5-0.5,0.9-0.9,1.4-1.4c0.3-0.3,0.6-0.6,1-1c0.3-0.3,0.6-0.6,0.8-0.8l0,0l0,0c0.5-0.5,1-1,1.5-1.5h0.1c0.2,0.2,0.4,0.4,0.6,0.6
	c0.1,0.1,0.2,0.2,0.4,0.4l1.2,1.2l2.4,2.4c0,0,0,0,0.1,0.1c0.1,0,0.1,0.1,0.1,0.2c-0.8,0.8-1.5,1.5-2.3,2.3h0v0l0,0h0
	c-0.8,0.8-1.6,1.6-2.5,2.5l-4.6-4.6c0,0,0,0-0.1-0.1c0,0,0,0-0.1-0.1c0,0,0,0-0.1,0.1l0,0h0l0,0c0,0,0,0,0,0
	c-0.8,0.8-1.5,1.5-2.3,2.3c-0.8,0.8-1.5,1.5-2.3,2.3c-0.7-0.7-1.4-1.4-2.1-2.1c-0.9-0.9-1.8-1.8-2.7-2.6c0.8-0.9,1.7-1.7,2.5-2.5
	l0,0c0.8-0.8,1.5-1.5,2.3-2.3h0.1c0,0.1,0.1,0.1,0.1,0.2C24.9,17.6,25.5,18.2,26.1,18.8z M11.7,19.5L11.7,19.5
	c-0.6,0.6-1.2,1.2-1.8,1.8c0,0-0.1,0.1-0.1,0.1h0c-0.1,0.1-0.2,0.2-0.2,0.3c0.8,0.8,1.6,1.6,2.4,2.4c0.8,0.8,1.6,1.6,2.4,2.4
	c0.8-0.8,1.6-1.6,2.4-2.4l0,0c0.8-0.8,1.6-1.6,2.4-2.4v-0.1l-3.3-3.3c-0.2-0.2-0.4-0.4-0.5-0.5c-0.3-0.3-0.6-0.6-0.9-0.9h-0.1
	C13.5,17.7,12.6,18.6,11.7,19.5z M19.3,31.2C19.3,31.2,19.3,31.2,19.3,31.2c0.5-0.6,1.1-1.1,1.6-1.6c1-1,2.1-2.1,3.1-3.1l0.1,0l0,0
	c1.6,1.6,3.1,3.2,4.7,4.7c0,0.1-0.1,0.1-0.2,0.2c0,0-0.1,0.1-0.1,0.1c-0.6,0.6-1.1,1.1-1.7,1.7c-0.6,0.6-1.1,1.1-1.7,1.7
	c-0.1,0.1-0.3,0.3-0.4,0.4c-0.2,0.2-0.4,0.4-0.7,0.6c-0.3-0.3-0.6-0.6-0.9-0.9c-0.2-0.2-0.4-0.4-0.6-0.6c-0.3-0.3-0.5-0.5-0.8-0.8
	C20.9,32.9,20.1,32.1,19.3,31.2C19.3,31.3,19.3,31.3,19.3,31.2z"/>
</svg>
